<svg width="86" height="89" viewBox="0 0 86 89" fill="none" xmlns="http://www.w3.org/2000/svg">
<path d="M61.5111 48.2801C61.5104 48.2802 61.5091 48.2801 61.5077 48.2801H31.0778C30.7796 48.2801 30.5096 48.0951 30.391 47.8092C30.2722 47.5234 30.3273 47.191 30.5309 46.9637L37.3495 39.3448H32.6313C32.3415 39.3448 32.0776 39.1699 31.954 38.896C31.8304 38.622 31.8693 38.2982 32.054 38.0645L38.9279 29.366H36.8514C36.5842 29.366 36.3373 29.2172 36.2034 28.9756C36.0695 28.734 36.069 28.436 36.2023 28.194L45.6454 11.0188C45.7786 10.7765 46.0253 10.627 46.2928 10.6263C46.2933 10.6263 46.294 10.6263 46.2947 10.6263C46.5615 10.6263 46.8079 10.7746 46.942 11.0155L56.4924 28.1907C56.627 28.4327 56.6277 28.7313 56.4941 28.9738C56.3603 29.2165 56.1131 29.3658 55.8452 29.3658H53.6579L60.5319 38.0644C60.7164 38.298 60.7555 38.6218 60.632 38.8958C60.5084 39.1697 60.2446 39.3446 59.9548 39.3446H55.331L62.0191 46.9228C62.1674 47.0657 62.26 47.2705 62.26 47.4978C62.2597 47.9298 61.9247 48.2801 61.5111 48.2801ZM32.8028 46.7156H59.7992L53.0716 39.0927C52.8702 38.8643 52.8171 38.533 52.9364 38.2486C53.0558 37.9641 53.3248 37.7803 53.6221 37.7803H58.3655L51.4915 29.0818C51.307 28.8482 51.2679 28.5243 51.3914 28.2504C51.515 27.9764 51.7788 27.8015 52.0686 27.8015H54.5443L46.2985 12.9721L38.145 27.8015H40.5172C40.807 27.8015 41.0709 27.9764 41.1945 28.2504C41.3181 28.5243 41.2792 28.8482 41.0945 29.0818L34.2205 37.7803H39.0748C39.373 37.7803 39.643 37.9653 39.7616 38.251C39.8804 38.537 39.8253 38.8692 39.6217 39.0967L32.8028 46.7156Z" fill="#404040"/>
<path d="M48.7358 59.6543H43.8497C43.4363 59.6543 43.1011 59.304 43.1011 58.8721V47.4978C43.1011 47.0658 43.4363 46.7156 43.8497 46.7156H48.7358C49.1492 46.7156 49.4844 47.0658 49.4844 47.4978V58.8721C49.4844 59.304 49.1494 59.6543 48.7358 59.6543ZM44.5983 58.0898H47.9872V48.28H44.5983V58.0898Z" fill="#404040"/>
</svg>
