<svg width="34" height="35" viewBox="0 0 34 35" fill="none" xmlns="http://www.w3.org/2000/svg">
<g clip-path="url(#clip0)">
<path d="M25.2913 0.802184C21.2281 0.802184 17.922 4.25668 17.922 8.50218C17.922 10.3733 18.5658 12.0897 19.6317 13.426L2.90599 30.9022L6.05939 34.1971L7.00668 33.2073L4.80057 30.9022L7.20297 28.3927L9.40908 30.6978L10.3564 29.708L8.15027 27.4029L20.579 14.4158C21.8572 15.5302 23.4999 16.2022 25.2913 16.2022C29.3545 16.2022 32.6606 12.7477 32.6606 8.50218C32.6606 4.25669 29.3545 0.802185 25.2913 0.802184ZM25.2913 14.8022C21.9671 14.8022 19.2619 11.9756 19.2619 8.50218C19.2619 5.02878 21.9671 2.20218 25.2913 2.20218C28.6156 2.20218 31.3208 5.02879 31.3208 8.50218C31.3208 11.9756 28.6156 14.8022 25.2913 14.8022Z" fill="#404040"/>
</g>
<defs>
<clipPath id="clip0">
<rect width="33.4969" height="35" fill="white" transform="translate(34.0005 35) rotate(-180)"/>
</clipPath>
</defs>
</svg>
