<svg width="33" height="34" viewBox="0 0 33 34" fill="none" xmlns="http://www.w3.org/2000/svg">
<g clip-path="url(#clip0)">
<path d="M32.3137 32.6373L19.9969 19.8873C21.4603 18.1644 22.4161 16.0363 22.7492 13.7592C23.0823 11.482 22.7786 9.15281 21.8745 7.05178C20.9705 4.95075 19.5047 3.16742 17.6535 1.91637C15.8023 0.665308 13.6446 -0.000176412 11.4399 -1.48113e-05C9.93699 -0.00439648 8.44816 0.302776 7.05964 0.903717C5.67111 1.50466 4.41047 2.38743 3.35069 3.50092C1.75079 5.1726 0.661239 7.30245 0.219823 9.62114C-0.221592 11.9398 0.0049541 14.3432 0.870814 16.5274C1.73667 18.7115 3.20296 20.5784 5.08424 21.8918C6.96552 23.2052 9.17731 23.9063 11.4399 23.9062C14.1835 23.9134 16.8368 22.8821 18.9088 21.003L31.2409 33.7689C31.3111 33.8468 31.3956 33.9091 31.4893 33.9522C31.5831 33.9953 31.6841 34.0182 31.7865 34.0195C31.8889 34.0209 31.9905 34.0007 32.0853 33.9602C32.18 33.9196 32.266 33.8595 32.3381 33.7835C32.4101 33.7075 32.4668 33.6171 32.5047 33.5177C32.5426 33.4183 32.561 33.312 32.5587 33.205C32.5565 33.0981 32.5336 32.9927 32.4915 32.8951C32.4494 32.7976 32.389 32.7099 32.3137 32.6373ZM4.42858 19.279C2.56959 17.3363 1.52524 14.7016 1.52524 11.9544C1.52524 9.20724 2.56959 6.57254 4.42858 4.62983C6.28776 2.68687 8.80949 1.59519 11.439 1.59494C12.741 1.59481 14.0303 1.86265 15.2332 2.38315C16.4362 2.90365 17.5292 3.66662 18.45 4.6285C19.3707 5.59038 20.1011 6.73234 20.5995 7.98916C21.0978 9.24599 21.3544 10.5931 21.3545 11.9535C21.3546 13.3139 21.0983 14.6611 20.6002 15.918C20.102 17.1749 19.3718 18.317 18.4512 19.279C16.5919 21.2215 14.0704 22.3127 11.4412 22.3127C8.81196 22.3127 6.2904 21.2215 4.43112 19.279H4.42858Z" fill="#404040"/>
</g>
<defs>
<clipPath id="clip0">
<rect width="32.5399" height="34" fill="white"/>
</clipPath>
</defs>
</svg>
