<svg width="27" height="32" viewBox="0 0 27 32" fill="none" xmlns="http://www.w3.org/2000/svg">
<path d="M25.8279 31.6005C25.8274 31.6007 25.8263 31.6005 25.8252 31.6005H1.17483C0.93333 31.6005 0.714604 31.4488 0.618516 31.2143C0.522294 30.9799 0.566902 30.7073 0.731855 30.5208L6.25536 24.2716H2.43327C2.19851 24.2716 1.98477 24.1281 1.88464 23.9034C1.78451 23.6787 1.81604 23.4131 1.96563 23.2215L7.53402 16.0867H5.85187C5.63544 16.0867 5.43545 15.9647 5.32696 15.7665C5.21847 15.5683 5.21807 15.3239 5.32602 15.1255L12.9756 1.03788C13.0835 0.83913 13.2834 0.716513 13.5001 0.715942C13.5005 0.715942 13.501 0.715942 13.5016 0.715942C13.7177 0.715942 13.9173 0.837561 14.0259 1.03517L21.7624 15.1228C21.8715 15.3212 21.872 15.5662 21.7638 15.7651C21.6554 15.9641 21.4552 16.0866 21.2382 16.0866H19.4663L25.0347 23.2213C25.1841 23.413 25.2158 23.6786 25.1158 23.9033C25.0157 24.128 24.8019 24.2714 24.5672 24.2714H20.8216L26.2395 30.4873C26.3596 30.6045 26.4346 30.7724 26.4346 30.9589C26.4344 31.3132 26.1629 31.6005 25.8279 31.6005ZM2.57222 30.3173H24.4412L18.9914 24.0648C18.8282 23.8775 18.7852 23.6057 18.8818 23.3725C18.9786 23.1391 19.1965 22.9884 19.4373 22.9884H23.2798L17.7114 15.8536C17.5619 15.662 17.5303 15.3964 17.6303 15.1717C17.7304 14.947 17.9441 14.8035 18.1789 14.8035H20.1843L13.5047 2.64003L6.89981 14.8035H8.82143C9.0562 14.8035 9.26993 14.947 9.37006 15.1717C9.47019 15.3964 9.43866 15.662 9.28907 15.8536L3.72069 22.9884H7.65302C7.89452 22.9884 8.11324 23.1401 8.20933 23.3745C8.30555 23.609 8.26094 23.8815 8.09599 24.0681L2.57222 30.3173Z" fill="#404040"/>
</svg>
