<svg width="148" height="76" viewBox="0 0 148 76" fill="none" xmlns="http://www.w3.org/2000/svg">
<path d="M17.205 23.92V25.408H30.155V38.428H31.635V23.92H17.205ZM1.48 41.218H0V55.726H14.43V54.238H1.48V41.218ZM30.34 54.424H17.39V55.912H31.82V41.404H30.34V54.424ZM0 38.428H1.48V25.408H14.43V23.92H0V38.428Z" fill="black"/>
<path d="M36.696 34.4449V31.6489H38.556C39.336 31.6489 40.008 31.4209 40.548 30.9649C41.088 30.4969 41.364 29.8609 41.364 29.0569C41.364 28.3489 41.124 27.7489 40.632 27.2569C40.14 26.7649 39.468 26.5129 38.592 26.5129H35.988V34.4449H36.696ZM38.34 27.0889C39.096 27.0889 39.66 27.2809 40.032 27.6769C40.416 28.0609 40.608 28.5289 40.608 29.0689C40.608 29.6209 40.428 30.0889 40.068 30.4849C39.708 30.8809 39.18 31.0729 38.472 31.0729H36.696V27.0889H38.34ZM43.3257 25.9129H42.6417V34.4449H43.3257V25.9129ZM45.0792 32.3809C45.0792 33.8329 45.7392 34.5649 47.0712 34.5649C47.7552 34.5649 48.3552 34.2649 48.8472 33.6649C48.8592 33.6649 48.8712 33.6649 48.8832 33.6769L49.0032 34.4449H49.5312V29.1049H48.8472V31.8649C48.8472 33.2449 48.1272 33.9529 47.0712 33.9529C46.1952 33.9529 45.7512 33.3769 45.7512 32.2369V29.1049H45.0792V32.3809ZM59.329 31.1329C59.329 29.7889 58.645 28.9849 57.289 28.9849C56.629 28.9849 55.909 29.3449 55.477 30.0529C55.189 29.3809 54.577 28.9849 53.749 28.9849C53.017 28.9849 52.441 29.2729 52.021 29.8609C52.009 29.8609 51.997 29.8609 51.985 29.8489L51.865 29.1169H51.337V34.4449H52.021V31.6969C52.021 30.3169 52.729 29.5729 53.701 29.5729C54.517 29.5729 54.997 30.1369 54.997 31.1809V34.4449H55.681V31.6969C55.681 30.2569 56.389 29.5729 57.289 29.5729C58.201 29.5729 58.657 30.1129 58.657 31.1809V34.4449H59.329V31.1329ZM61.7459 33.6289C62.1659 34.2169 62.9699 34.5649 63.7739 34.5649C64.5419 34.5649 65.1899 34.3009 65.7299 33.7609C66.2699 33.2209 66.5339 32.5489 66.5339 31.7689C66.5339 30.9409 66.2939 30.2809 65.8019 29.7649C65.3099 29.2489 64.6499 28.9849 63.8099 28.9849C63.0059 28.9849 62.2259 29.3329 61.7579 29.9569L61.6979 29.9449V25.9129H61.0139V34.4449H61.5659L61.6859 33.6649L61.7459 33.6289ZM63.7619 33.9769C63.1499 33.9769 62.6459 33.7609 62.2619 33.3409C61.8779 32.9209 61.6859 32.3929 61.6859 31.7689C61.6859 31.1569 61.8779 30.6289 62.2499 30.1969C62.6339 29.7649 63.1379 29.5489 63.7619 29.5489C64.3979 29.5489 64.9019 29.7649 65.2739 30.1849C65.6459 30.6049 65.8379 31.1329 65.8379 31.7689C65.8379 32.3929 65.6459 32.9209 65.2499 33.3409C64.8659 33.7609 64.3739 33.9769 63.7619 33.9769ZM72.5362 33.2809C71.9482 33.7489 71.2642 33.9769 70.4842 33.9769C69.9202 33.9769 69.4402 33.7969 69.0442 33.4369C68.6602 33.0649 68.4562 32.5729 68.4442 31.9489H72.7522C72.7642 31.9009 72.7642 31.8169 72.7642 31.7089C72.7642 30.9289 72.5482 30.2809 72.1162 29.7649C71.6842 29.2489 71.0842 28.9849 70.3282 28.9849C69.5962 28.9849 68.9722 29.2489 68.4802 29.7889C67.9882 30.3169 67.7362 30.9769 67.7362 31.7569C67.7362 32.6089 67.9882 33.2929 68.4802 33.8089C68.9842 34.3129 69.6682 34.5649 70.5202 34.5649C71.3362 34.5649 72.0082 34.3609 72.5362 33.9649V33.2809ZM70.3402 29.5849C71.3482 29.5849 72.0082 30.2929 72.1162 31.3969H68.4562C68.5642 30.2929 69.2842 29.5849 70.3402 29.5849ZM76.5269 29.6209C76.7069 29.6209 76.8749 29.6449 77.0189 29.6809V29.0209C76.9229 28.9969 76.8029 28.9849 76.6589 28.9849C75.8549 28.9849 75.2669 29.3449 74.8829 30.0769C74.8709 30.0769 74.8589 30.0769 74.8469 30.0649L74.7269 29.1169H74.2589V34.4449H74.9429V31.8169C74.9429 30.5569 75.5549 29.6209 76.5269 29.6209ZM79.7613 29.6209C79.9413 29.6209 80.1093 29.6449 80.2533 29.6809V29.0209C80.1573 28.9969 80.0373 28.9849 79.8933 28.9849C79.0893 28.9849 78.5013 29.3449 78.1173 30.0769C78.1053 30.0769 78.0933 30.0769 78.0813 30.0649L77.9613 29.1169H77.4933V34.4449H78.1773V31.8169C78.1773 30.5569 78.7893 29.6209 79.7613 29.6209ZM81.1721 29.1049H80.4281L82.6361 34.2649L81.4961 37.0249H82.2041L85.4921 29.1049H84.8201L83.0321 33.4729H82.9601L81.1721 29.1049Z" fill="black"/>
</svg>
