<svg width="75" height="37" viewBox="0 0 75 37" fill="none" xmlns="http://www.w3.org/2000/svg">
<path d="M74.6063 36.7316H66.7993V6.79044C66.8012 5.78422 67.199 4.81976 67.9057 4.10825C68.6123 3.39675 69.5701 2.99618 70.5694 2.99426H70.8362C71.8355 2.99618 72.7933 3.39675 73.4999 4.10825C74.2066 4.81976 74.6044 5.78422 74.6063 6.79044V36.7316ZM68.9619 34.554H72.4437V6.79044C72.4437 6.36115 72.2743 5.94944 71.9729 5.64589C71.6714 5.34233 71.2625 5.1718 70.8362 5.1718H70.5694C70.1431 5.1718 69.7342 5.34233 69.4327 5.64589C69.1313 5.94944 68.9619 6.36115 68.9619 6.79044V34.554Z" fill="#EAE5E5"/>
<path d="M11.127 36.7317H0.443848V5.17908C0.445755 3.8071 0.987876 2.49185 1.95135 1.52171C2.91483 0.551574 4.22104 0.00570438 5.58361 0.00378418L5.98008 0.00378418C7.34264 0.00570438 8.64885 0.551574 9.61233 1.52171C10.5758 2.49185 11.1179 3.8071 11.1198 5.17908L11.127 36.7317ZM2.60644 34.5541H8.96446V5.17908C8.96255 4.38336 8.64728 3.62089 8.08781 3.05891C7.52834 2.49693 6.77034 2.18133 5.98008 2.18133H5.58361C4.7946 2.18324 4.03845 2.49969 3.48053 3.06147C2.92262 3.62324 2.60834 4.38462 2.60644 5.17908V34.5541Z" fill="#EAE5E5"/>
<path d="M68.7096 31.8394H8.96436V13.8458H68.7096V31.8394ZM11.1197 29.6618H66.547V16.0233H11.1269L11.1197 29.6618Z" fill="#EAE5E5"/>
<path d="M28.4273 15.3481H9.09375V6.74683H28.4273C28.7643 6.74683 29.098 6.81366 29.4094 6.94352C29.7208 7.07338 30.0037 7.26372 30.242 7.50367C30.4803 7.74362 30.6693 8.02848 30.7983 8.34199C30.9272 8.6555 30.9936 8.99151 30.9936 9.33085V12.7641C30.9936 13.1035 30.9272 13.4395 30.7983 13.753C30.6693 14.0665 30.4803 14.3514 30.242 14.5913C30.0037 14.8313 29.7208 15.0216 29.4094 15.1514C29.098 15.2813 28.7643 15.3481 28.4273 15.3481ZM11.2563 13.1706H28.4273C28.5344 13.1706 28.6371 13.1278 28.7128 13.0515C28.7885 12.9753 28.831 12.8719 28.831 12.7641V9.33085C28.831 9.22305 28.7885 9.11966 28.7128 9.04343C28.6371 8.9672 28.5344 8.92438 28.4273 8.92438H11.2563V13.1706Z" fill="#EAE5E5"/>
</svg>
