<svg width="54" height="41" viewBox="0 0 54 41" fill="none" xmlns="http://www.w3.org/2000/svg">
<g clip-path="url(#clip0)">
<path d="M27.609 41H0.151367V0H27.609V41ZM1.9503 39.1885H25.8101V1.81149H1.9503V39.1885Z" fill="#EAE5E5"/>
<path d="M21.8162 36.8336H4.79834V4.22681H21.8162V36.8336ZM5.99763 35.6259H20.6169V5.43447H5.99763V35.6259Z" fill="#EAE5E5"/>
<path d="M24.3589 24.0988C24.1999 24.0988 24.0474 24.0352 23.9349 23.922C23.8225 23.8087 23.7593 23.6551 23.7593 23.495V17.5714C23.7593 17.4113 23.8225 17.2577 23.9349 17.1444C24.0474 17.0312 24.1999 16.9676 24.3589 16.9676C24.518 16.9676 24.6705 17.0312 24.7829 17.1444C24.8954 17.2577 24.9586 17.4113 24.9586 17.5714V23.495C24.9586 23.6551 24.8954 23.8087 24.7829 23.922C24.6705 24.0352 24.518 24.0988 24.3589 24.0988Z" fill="#EAE5E5"/>
<path d="M53.2677 41H25.8101V0H53.2677V41ZM27.609 39.1885H51.4688V1.81149H27.609V39.1885Z" fill="#EAE5E5"/>
<path d="M48.6206 36.8336H31.8306V4.22681H48.6206V36.8336ZM33.0299 35.6259H47.4213V5.43447H33.0299V35.6259Z" fill="#EAE5E5"/>
<path d="M29.0601 24.0988C28.9011 24.0988 28.7485 24.0352 28.6361 23.922C28.5236 23.8087 28.4604 23.6551 28.4604 23.495V17.5714C28.4604 17.4113 28.5236 17.2577 28.6361 17.1444C28.7485 17.0312 28.9011 16.9676 29.0601 16.9676C29.2191 16.9676 29.3717 17.0312 29.4841 17.1444C29.5966 17.2577 29.6597 17.4113 29.6597 17.5714V23.495C29.6597 23.6551 29.5966 23.8087 29.4841 23.922C29.3717 24.0352 29.2191 24.0988 29.0601 24.0988Z" fill="#EAE5E5"/>
</g>
<defs>
<clipPath id="clip0">
<rect width="53.1164" height="41" fill="white" transform="translate(0.151367)"/>
</clipPath>
</defs>
</svg>
