<svg width="70" height="39" viewBox="0 0 70 39" fill="none" xmlns="http://www.w3.org/2000/svg">
<path d="M66.395 27.9554H4.28711V11.1093C4.28882 8.16445 5.45523 5.34072 7.53009 3.25841C9.60496 1.17609 12.4186 0.00550079 15.3529 0.00378418L55.3357 0.00378418C58.2677 0.00721378 61.0787 1.17767 63.152 3.2584C65.2253 5.33913 66.3916 8.16022 66.395 11.1028V27.9554ZM6.22395 26.0117H64.4582V11.1093C64.4565 8.6811 63.495 6.35276 61.7848 4.63516C60.0745 2.91756 57.7552 1.951 55.3357 1.94757H15.3529C12.9334 1.94929 10.6134 2.9142 8.90192 4.63058C7.19047 6.34696 6.22737 8.67462 6.22395 11.1028V26.0117Z" fill="#EAE5E5"/>
<path d="M69.9135 27.7999H60.9395V12.0811C60.9395 10.9504 61.387 9.866 62.1837 9.06646C62.9804 8.26693 64.0609 7.81775 65.1876 7.81775H65.6718C66.7985 7.81775 67.879 8.26693 68.6757 9.06646C69.4723 9.866 69.9199 10.9504 69.9199 12.0811L69.9135 27.7999ZM62.8698 25.8561H67.9766V12.0811C67.9766 11.4659 67.7331 10.8759 67.2997 10.4409C66.8662 10.0059 66.2783 9.76154 65.6653 9.76154H65.1811C64.5681 9.76154 63.9802 10.0059 63.5468 10.4409C63.1133 10.8759 62.8698 11.4659 62.8698 12.0811V25.8561Z" fill="#EAE5E5"/>
<path d="M9.74902 27.7999H0.768555V12.0811C0.768555 10.9504 1.21612 9.866 2.0128 9.06646C2.80948 8.26693 3.89001 7.81775 5.01668 7.81775H5.50735C6.06522 7.81775 6.61763 7.92802 7.13303 8.14228C7.64844 8.35653 8.11675 8.67057 8.51122 9.06646C8.9057 9.46236 9.21861 9.93235 9.4321 10.4496C9.64559 10.9669 9.75547 11.5213 9.75547 12.0811L9.74902 27.7999ZM2.70539 25.8561H7.81218V12.0811C7.81218 11.4659 7.56867 10.8759 7.13522 10.4409C6.70177 10.0059 6.11388 9.76154 5.50089 9.76154H5.01668C4.40369 9.76154 3.8158 10.0059 3.38235 10.4409C2.9489 10.8759 2.70539 11.4659 2.70539 12.0811V25.8561Z" fill="#EAE5E5"/>
<path d="M8.63214 38.1666H6.2692C5.68874 38.1666 5.13205 37.9352 4.7216 37.5233C4.31115 37.1114 4.08057 36.5527 4.08057 35.9702V31.7522H10.8208V35.9961C10.814 36.5741 10.5804 37.1262 10.1707 37.5325C9.76096 37.9388 9.20816 38.1667 8.63214 38.1666ZM6.01741 33.696V35.9961C6.01741 36.0631 6.04393 36.1274 6.09115 36.1748C6.13837 36.2222 6.20242 36.2488 6.2692 36.2488H8.63214C8.69892 36.2488 8.76296 36.2222 8.81018 36.1748C8.8574 36.1274 8.88393 36.0631 8.88393 35.9961V33.696H6.01741Z" fill="#EAE5E5"/>
<path d="M63.3543 38.1666H60.9914C60.4109 38.1666 59.8542 37.9352 59.4438 37.5233C59.0333 37.1114 58.8027 36.5527 58.8027 35.9702V31.7522H65.5429V35.9961C65.5361 36.5741 65.3026 37.1262 64.8928 37.5325C64.4831 37.9388 63.9303 38.1667 63.3543 38.1666ZM60.7719 33.67V35.9702C60.7719 36.0372 60.7984 36.1015 60.8456 36.1488C60.8928 36.1962 60.9569 36.2229 61.0236 36.2229H63.3866C63.4534 36.2229 63.5174 36.1962 63.5646 36.1488C63.6118 36.1015 63.6384 36.0372 63.6384 35.9702V33.696L60.7719 33.67Z" fill="#EAE5E5"/>
<path d="M3.30576 33.2229C2.64251 33.2229 2.00634 32.9589 1.53675 32.4889C1.06716 32.0188 0.802491 31.381 0.800781 30.7154V22.5127L69.8813 22.4349V30.6377C69.8813 31.3033 69.6183 31.9418 69.1499 32.413C68.6815 32.8843 68.046 33.1499 67.3828 33.1516L3.30576 33.2229ZM2.70534 24.45V30.7154C2.70702 30.8644 2.76673 31.0068 2.87171 31.1122C2.97668 31.2175 3.11857 31.2774 3.26702 31.2791L67.3699 31.2079C67.5194 31.2061 67.6623 31.1453 67.7674 31.0386C67.8726 30.9318 67.9316 30.7878 67.9315 30.6377V24.3787L2.70534 24.45Z" fill="#EAE5E5"/>
</svg>
