<svg width="77" height="34" viewBox="0 0 77 34" fill="none" xmlns="http://www.w3.org/2000/svg">
<path d="M48.5932 28.9275H28.3844C21.5287 28.9198 14.9559 26.1939 10.1081 21.3478C5.26039 16.5017 2.53355 9.93114 2.52588 3.0777V1.99158H74.4301V3.0777C74.4224 9.92738 71.6986 16.4946 66.8555 21.3401C62.0124 26.1856 55.4452 28.9141 48.5932 28.9275ZM4.72784 4.16383C5.01433 10.2459 7.63085 15.9846 12.0351 20.1906C16.4393 24.3965 22.2935 26.7471 28.3844 26.7552H48.5932C54.6816 26.7434 60.5322 24.3911 64.9334 20.1856C69.3345 15.98 71.949 10.2434 72.2353 4.16383H4.72784Z" fill="#EAE5E5"/>
<path d="M73.8576 5.02551H3.09786C2.5811 5.02551 2.08551 4.82029 1.7201 4.45499C1.3547 4.0897 1.14941 3.59425 1.14941 3.07764C1.14941 2.56103 1.3547 2.06558 1.7201 1.70028C2.08551 1.33498 2.5811 1.12976 3.09786 1.12976H73.8576C74.3744 1.12976 74.87 1.33498 75.2354 1.70028C75.6008 2.06558 75.8061 2.56103 75.8061 3.07764C75.8061 3.33344 75.7557 3.58673 75.6577 3.82306C75.5598 4.05938 75.4163 4.27412 75.2354 4.45499C75.0544 4.63587 74.8396 4.77935 74.6032 4.87724C74.3669 4.97513 74.1135 5.02551 73.8576 5.02551Z" fill="#EAE5E5"/>
<path d="M73.8577 6.11157H3.09793C2.29301 6.11157 1.52106 5.79193 0.951902 5.22295C0.38274 4.65398 0.0629883 3.88229 0.0629883 3.07764C0.0629883 2.27299 0.38274 1.50129 0.951902 0.93232C1.52106 0.363347 2.29301 0.0437012 3.09793 0.0437012L73.8577 0.0437012C74.6626 0.0437012 75.4345 0.363347 76.0037 0.93232C76.5729 1.50129 76.8926 2.27299 76.8926 3.07764C76.8926 3.88229 76.5729 4.65398 76.0037 5.22295C75.4345 5.79193 74.6626 6.11157 73.8577 6.11157ZM3.09793 2.21597C2.86932 2.21597 2.65008 2.30675 2.48844 2.46835C2.32679 2.62994 2.23598 2.84911 2.23598 3.07764C2.23598 3.30616 2.32679 3.52533 2.48844 3.68693C2.65008 3.84852 2.86932 3.9393 3.09793 3.9393H73.8577C74.0863 3.9393 74.3055 3.84852 74.4672 3.68693C74.6288 3.52533 74.7196 3.30616 74.7196 3.07764C74.7196 2.84911 74.6288 2.62994 74.4672 2.46835C74.3055 2.30675 74.0863 2.21597 73.8577 2.21597H3.09793Z" fill="#EAE5E5"/>
<path d="M23.6931 27.0725L18.9673 31.6762L20.4838 33.2319L25.2097 28.6282L23.6931 27.0725Z" fill="#EAE5E5"/>
<path d="M53.9013 27.0637L52.3848 28.6194L57.1106 33.2232L58.6271 31.6674L53.9013 27.0637Z" fill="#EAE5E5"/>
</svg>
